# xmcd
#
# Track frame offsets:
#	150
#	11035
#	23117
#	34652
#	43757
#	56782
#	66442
#	78062
#	89957
#	100632
#	108812
#	118967
#	130457
#	141570
#	150132
#	163680
#	172747
#	183040
#	193557
#	205860
#	216007
#	226365
#	239055
#	249100
#
# Disc length: 3506 seconds
#
# Revision: 1
# Processed by: cddbd v1.5PL3 Copyright (c) Steve Scherf et al.
# Submitted via: audiograbber 1.80
#
DISCID=460db018
DTITLE=rose maddox - The One Rose disc 4
DYEAR=1900
DGENRE=
TTITLE0=Let Me Kiss You For Old Times 
TTITLE1=I Don't Hear You 
TTITLE2=Down To The River 
TTITLE3=Somebody Told Somebody 
TTITLE4=Sweethearts In Heaven (& BUCK OWENS) 
TTITLE5=We're The Talk Of The Town (& BUCK OWENS) 
TTITLE6=Back Street Affair (& BUCK OWENS) 
TTITLE7=No Fool Like An Old Fool (& BUCK OWENS) 
TTITLE8=I Won't Come In While He's There 
TTITLE9=Silver Threads And Golden Needles 
TTITLE10=Bluebird Let Me Tag Along 
TTITLE11=That's A Mighty Long Way To Fall 
TTITLE12=Stand Up Fool 
TTITLE13=Silver Threads And Golden Needles (master) 
TTITLE14=The Great Pretender 
TTITLE15=Tia Lisa Lynn 
TTITLE16=Lonely One 
TTITLE17=The Big Balls In Cowtown 
TTITLE18=Wabash Cannon Ball 
TTITLE19=I'll Always Be Loving You 
TTITLE20=Mad At The World 
TTITLE21=Big, Big Day Tomorrow 
TTITLE22=Cottonwood Road 
TTITLE23=Down To The River (live) 
EXTD=
EXTT0=
EXTT1=
EXTT2=
EXTT3=
EXTT4=
EXTT5=
EXTT6=
EXTT7=
EXTT8=
EXTT9=
EXTT10=
EXTT11=
EXTT12=
EXTT13=
EXTT14=
EXTT15=
EXTT16=
EXTT17=
EXTT18=
EXTT19=
EXTT20=
EXTT21=
EXTT22=
EXTT23=
PLAYORDER=
